<?xml version="1.0" standalone="no"?><!DOCTYPE svg PUBLIC "-//W3C//DTD SVG 1.1//EN" "http://www.w3.org/Graphics/SVG/1.1/DTD/svg11.dtd"><svg t="1578883232274" class="icon" viewBox="0 0 1024 1024" version="1.1" xmlns="http://www.w3.org/2000/svg" p-id="3355" xmlns:xlink="http://www.w3.org/1999/xlink" width="300" height="300"><defs><style type="text/css"></style></defs><path d="M556.9 823.7v116.7s-4.3 17.7-36.9 17.7c-28.2 0-36.9-16.3-36.9-16.3V825.2l0.9-0.7c3.8 5.3 18.4 11.2 35.9 11.2 18.4 0 33.7-6.5 36.4-12h0.6z" fill="#FFEB43" p-id="3356"></path><path d="M556.9 796.7V822c0 0.5-0.1 1.1-0.4 1.7-2.7 5.5-18 12-36.4 12-17.5 0-32.1-5.9-35.9-11.2-0.6-0.9-0.9-1.7-0.9-2.5v-25.3h73.6z" fill="#FF4A4A" p-id="3357"></path><path d="M483.1 947.8c-3.3 0-5.9-2.7-5.9-5.9V825.2c0-3.3 2.7-5.9 5.9-5.9s5.9 2.7 5.9 5.9v116.7c0.1 3.3-2.6 5.9-5.9 5.9z" fill="#91000A" p-id="3358"></path><path d="M520 841.6c-17.7 0-35.2-5.9-40.7-13.7-1.4-1.9-2-3.9-2-6v-25.3c0-3.3 2.7-5.9 5.9-5.9s5.9 2.7 5.9 5.9v24.5c1 1.1 3.9 3.2 9.7 5.2 6.3 2.1 13.8 3.3 21.2 3.3 16.6 0 28.8-5.7 30.9-8.5v-24.6c0-3.3 2.7-5.9 5.9-5.9 3.3 0 5.9 2.7 5.9 5.9v25.3c0 1.5-0.4 2.9-1 4.3-4.2 8.7-22.5 15.5-41.7 15.5z" fill="#91000A" p-id="3359"></path><path d="M556.8 946.4c-3.3 0-5.9-2.7-5.9-5.9V823.7c0-3.3 2.7-5.9 5.9-5.9 3.3 0 5.9 2.7 5.9 5.9v116.7c0.1 3.3-2.6 6-5.9 6zM518.8 215c-8.4 0-15-8.7-19.6-25.8-3.8-14.3-5.9-33.2-5.9-53.3s2.1-39 5.9-53.3c4.6-17.1 11.2-25.8 19.6-25.8 8.4 0 15 8.7 19.6 25.8 3.8 14.3 5.9 33.2 5.9 53.3 0 20-2.1 39-5.9 53.3-4.6 17.1-11.2 25.8-19.6 25.8z m0-146.3c-4 1.5-13.7 23.2-13.7 67.2s9.7 65.7 13.7 67.2c4-1.5 13.7-23.2 13.7-67.2s-9.7-65.7-13.7-67.2z" fill="#91000A" p-id="3360"></path><path d="M785 389.4c37.7 82.1 9.6 156.5-84.1 250.2-133.8 133.7-228 133.7-361.7 0-133.8-133.8-133.8-228 0-361.7 102.7-102.7 182.1-126.6 274-71.5-84.2-47.1-158-23.2-252.7 71.5-126.6 126.6-126.6 215.8 0 342.4 126.6 126.6 215.8 126.6 342.4 0 86.3-86.5 113.7-155.5 82.1-230.9z" fill="#D8000F" p-id="3361"></path><path d="M785 389.4c31.6 75.4 4.2 144.4-82.2 230.8-126.6 126.6-215.8 126.6-342.4 0-126.6-126.6-126.6-215.8 0-342.4 94.7-94.7 168.5-118.6 252.7-71.5 27.8 16.6 56.7 40.5 87.8 71.5 40 40.1 68 76.6 84.1 111.6z" fill="#FF2B3F" p-id="3362"></path><path d="M520 745.9c-29.4 0-58.7-8.5-89.6-25.8-29.5-16.6-60.8-41.5-95.4-76.2-34.7-34.7-59.6-65.9-76.2-95.4-17.4-30.9-25.8-60.2-25.8-89.6s8.5-58.7 25.8-89.6c16.6-29.5 41.5-60.8 76.2-95.4 53.9-53.9 99.5-84.5 143.7-96.4 45.2-12.2 90.2-4.3 137.5 24 27.6 16.5 56.7 40.2 88.9 72.4 41.5 41.5 69.4 78.5 85.3 113.3 19.4 42.4 21.9 83.3 7.4 125.2-14 40.6-43.5 82.5-92.7 131.7-34.7 34.7-65.9 59.6-95.4 76.2-31 17.1-60.3 25.6-89.7 25.6z m0.2-562.5c-12.8 0-25.5 1.8-38.5 5.2-42.1 11.4-86 41-138.4 93.4-33.9 33.9-58.2 64.3-74.3 92.9-16.4 29.1-24.3 56.5-24.3 83.8s8 54.7 24.3 83.8c16.1 28.6 40.4 59 74.3 92.9 33.9 33.9 64.3 58.2 92.9 74.3 29.1 16.4 56.5 24.3 83.8 24.3 27.3 0 54.7-8 83.8-24.3 28.6-16.1 59-40.4 92.9-74.3 47.3-47.3 76.7-88.9 89.9-127.2 13.4-38.8 11.1-76.8-7-116.3-15.3-33.4-42.4-69.3-82.9-109.8-31.5-31.5-59.8-54.6-86.6-70.6-31.4-18.9-60.7-28.1-89.9-28.1z" fill="#91000A" p-id="3363"></path><path d="M654.4 322.6c49.8 49.8 73.3 91.8 70.4 134.3C724 416 699.7 375 651.7 327c-58-58-105.8-81.5-155.6-70.4 51-15.1 99.2 6.9 158.3 66z" fill="#FFEB43" p-id="3364"></path><path d="M724.8 456.9c0.7 42.1-23.6 84.2-73 133.6-97.4 97.4-166 97.4-263.4 0-97.4-97.4-97.4-166 0-263.4 39.4-39.4 74.1-62.9 107.9-70.4-30.2 9-61.4 31-96.4 66-94.1 94.1-94.1 160.5 0 254.6 94.1 94.2 160.5 94.2 254.6 0 44.2-44.4 67.7-82.6 70.3-120.4z" fill="#FFC500" p-id="3365"></path><path d="M724.8 456.9c-2.6 37.8-26 76-70.4 120.4-94.1 94.2-160.5 94.2-254.6 0-94.1-94.1-94.1-160.5 0-254.6 35-35 66.2-57 96.4-66 49.7-11.1 97.6 12.4 155.6 70.4 47.9 47.9 72.2 88.9 73 129.8z" fill="#FFEB00" p-id="3366"></path><path d="M520 669.4c-42.3 0-84.2-23.1-135.9-74.8-51.7-51.7-74.8-93.6-74.8-135.9 0-42.3 23.1-84.2 74.8-135.9 41.5-41.5 76.7-64.4 110.8-72 50.4-11.2 100 11 161.1 72 25 25 43 47.5 55.2 68.8 12.8 22.5 19.2 43.7 19.6 65.1 0.8 42.9-22.3 85.4-74.8 137.9-51.8 51.7-93.7 74.8-136 74.8z m-0.1-409.5c-7.5 0-15 0.8-22.5 2.5-31.8 7.1-65.1 28.9-105 68.8-49.3 49.3-71.3 88.6-71.3 127.5s22 78.2 71.3 127.5 88.6 71.3 127.5 71.3c38.9 0 78.2-22 127.5-71.3 50-50 72-89.9 71.3-129.3-0.7-37.8-23.3-77.8-71.3-125.8-29.2-29.2-55.1-48.8-79.2-59.9-16.3-7.5-32.3-11.3-48.3-11.3z" fill="#91020B" p-id="3367"></path><path d="M600.4 530.5c-1.8 1.5 6.8-2.9 4.3-2.5-0.6 0.1-1.1 0.2-1.7 0.3 1.3-0.2 2.6-0.3 3.9-0.5-2 0.3-4.1 0.5-6.1 0.9 1.3-0.2 2.7-0.4 4-0.5-0.5 0.1-1 0.1-1.4 0 1.4 0.2 2.7 0.4 4.1 0.6-0.4-0.1-0.8-0.2-1.2-0.4 1.2 0.5 2.5 1 3.7 1.6-0.2-0.1-0.4-0.2-0.6-0.4 1.1 0.8 2.1 1.6 3.2 2.5l-0.9-0.9c0.8 1.1 1.6 2.1 2.5 3.2-0.1-0.2-0.2-0.4-0.3-0.5 0.5 1.3 1.1 2.5 1.6 3.8-0.1-0.2-0.1-0.4-0.2-0.6l0.6 4.2v-0.6l-0.6 4.2c0.1-0.2 0.1-0.4 0.2-0.6-0.5 1.3-1.1 2.5-1.6 3.8l0.3-0.6c-0.8 1.1-1.7 2.1-2.5 3.2 0.5-0.6 0.9-1 1.5-1.4-1.1 0.8-2.1 1.7-3.2 2.5 1.1-0.8 2.3-1.5 3.5-2-1.3 0.5-2.5 1.1-3.8 1.6 0.8-0.3 1.7-0.6 2.6-0.8-1.4 0.2-2.8 0.4-4.3 0.6 0.6-0.1 1.2-0.1 1.8 0-1.4-0.2-2.9-0.4-4.3-0.6 0.4 0.1 0.8 0.2 1.1 0.3-1.3-0.5-2.6-1.1-3.9-1.6 0.4 0.2 0.7 0.4 1 0.6-1.1-0.8-2.2-1.7-3.3-2.5 0.1 0.2 0.3 0.3 0.4 0.5-0.8-1.1-1.7-2.2-2.5-3.3 0.2 0.3 0.4 0.6 0.6 1-0.5-1.3-1.1-2.6-1.6-3.9 0.1 0.2 0.1 0.4 0.2 0.5-0.2-1.4-0.4-2.9-0.6-4.3 0.1 0.4 0.1 0.8 0.1 1.1 0.2-1.4 0.4-2.9 0.6-4.3-0.1 0.6-0.2 1.1-0.5 1.7 0.5-1.3 1.1-2.6 1.6-3.9-0.2 0.4-0.4 0.7-0.6 1.1 0.9-1.1 1.7-2.2 2.6-3.3-0.4 0.5-0.8 0.9-1.3 1.3 1.1-0.9 2.2-1.7 3.3-2.6-0.3 0.3-0.7 0.5-1 0.6 1.3-0.6 2.6-1.1 3.9-1.7-0.8 0.3-1.5 0.5-2.3 0.7 1.5-0.2 2.9-0.4 4.4-0.6-1.7 0.2-3.3 0.1-5-0.1 1.5 0.2 2.9 0.4 4.4 0.6-0.6-0.1-1.1-0.2-1.7-0.2 3.8 6.7 7.7 13.5 11.5 20.2 0.3-1.7 0.6-3.3 1.2-4.9-0.6 1.3-1.1 2.6-1.7 3.9 0.4-0.9 0.8-1.7 1.4-2.4-0.9 1.1-1.7 2.2-2.6 3.3 0.5-0.6 0.9-1 1.5-1.4-1.1 0.9-2.2 1.7-3.3 2.6 0.3-0.2 0.6-0.4 1-0.5-1.3 0.6-2.6 1.1-3.9 1.7 0.3-0.1 0.7-0.2 1.1-0.3-1.5 0.2-2.9 0.4-4.4 0.6h1.7c-1.5-0.2-2.9-0.4-4.4-0.6 0.4 0.1 0.7 0.2 1.1 0.3-1.3-0.6-2.6-1.1-3.9-1.7 0.5 0.2 0.9 0.5 1.4 0.8-1.1-0.9-2.2-1.7-3.3-2.6 0.3 0.2 0.5 0.5 0.7 0.7-0.9-1.1-1.7-2.2-2.6-3.3 0.1 0.1 0.2 0.3 0.2 0.4-0.6-1.3-1.1-2.6-1.7-3.9 0.1 0.3 0.2 0.6 0.3 1-0.2-1.5-0.4-2.9-0.6-4.4v0.5c0.2-1.5 0.4-2.9 0.6-4.4 0 0.3-0.1 0.6-0.2 0.8 0.6-1.3 1.1-2.6 1.7-3.9-0.1 0.1-0.1 0.2-0.2 0.4 0.9-1.1 1.7-2.2 2.6-3.3-0.2 0.2-0.3 0.4-0.6 0.6 1.1-0.9 2.2-1.7 3.3-2.6-0.2 0.2-0.5 0.3-0.7 0.4 1.3-0.6 2.6-1.1 3.9-1.7-0.3 0.1-0.5 0.2-0.8 0.2 1.5-0.2 2.9-0.4 4.4-0.6-0.5 0.1-0.9 0.1-1.3 0 1.5 0.2 2.9 0.4 4.4 0.6-0.8-0.1-1.6-0.4-2.3-0.7 1.3 0.5 2.5 1.1 3.8 1.6-0.1-0.1-0.2-0.1-0.3-0.2 1.1 0.8 2.1 1.6 3.2 2.5-0.2-0.2-0.4-0.3-0.5-0.6-3.3-4.2-10.2-5.3-15-4-4.9 1.4-9.7 5.6-10.8 10.8-1.4 6.5 0 12.6 4.6 17.5 3.6 3.8 9.2 5.4 14.3 5.3 13.5-0.5 22.6-14.1 17.3-26.7-4.4-10.5-17.1-15.1-27.4-10.8-8.2 3.5-13.2 11.2-14.6 19.9-0.7 4.3-0.8 8.8 1.7 12.7 2.2 3.4 5.7 6.9 9.8 7.6 7.4 1.1 13.9 1.7 20.9-1.8 5.5-2.8 9.5-8 11.2-13.9 2.4-7.8-0.7-16.4-7-21.3-5.5-4.2-12.7-5.4-19.3-3.2-4.7 1.6-9.2 4.2-12.7 7.8-7 7-7.4 19.5 0.2 26.3 6.6 5.9 15.7 6.6 23.3 2.3 6.2-3.5 11.8-12.6 9-19.8-2.1-5.7-6.5-9.5-12.7-9.7-3.9 0.3-6.8 1.9-9.5 4.1zM622.9 475.6c-5.4 1.8-10.4 4.6-15.7 6.6-5.5 2.1-11.1 3.9-16.9 5-3.6 0.6-8.4 0.7-11.4-1.5-1.9-1.4-2.1-4.8-1.5-7.6 1.1-4.8 4.6-8.6 7.9-12.1 4.9-5.1 10.2-10 15.6-14.7 5-4.5 10.2-8.9 15.4-13.1 5.6-4.5 12.2-8.4 17.1-13.8 3.7-4.1 4.4-10.1 0.9-14.5-3.7-4.6-9.1-5.1-14.3-2.9-8.4 3.7-16 11.1-23.1 16.9-6.6 5.4-13.1 11.1-19.3 17-12 11.3-25.5 24.7-23.5 42.6 2.2 19.3 20 28 37.8 25.3 6.9-1 13.7-3.4 20.1-6.1 7.7-3.2 15.9-7.6 20.2-15 3.5-5.9-2.3-14.4-9.3-12.1z" fill="#FF2B3F" p-id="3368"></path><path d="M559 430.7c0.9 1.2 1.7 2.6 2.9 3.5-0.7-0.9-1.5-1.9-2.2-2.8 0.3 0.9 0.8 1.6 1.5 2.2 1.1 1.7 2.6 3 4.4 4 1.8 1.1 3.7 1.8 5.8 1.9 2.1 0.5 4.2 0.4 6.2-0.3 1.2-0.5 2.5-1.1 3.7-1.6 1.8-1 3.3-2.3 4.4-4 1.4-1.5 2.3-3.3 2.8-5.3 0.7-2.1 0.7-4.2 0.3-6.2-0.1-2.1-0.7-4-1.9-5.8-0.8-1.1-1.6-2.1-2.4-3.2-1.4-1.5-3.1-2.6-5-3.2-1.9-1-3.9-1.4-6-1.3-4 0.2-8.2 1.5-11.1 4.6-1.9 2.1-3.6 4.7-4.1 7.5 2.1-2.8 4.3-5.6 6.4-8.4-0.1 0.1-0.3 0.1-0.4 0.2 1.1-0.5 2.2-0.9 3.3-1.4-0.2 0.1-0.5 0.2-0.7 0.2-2.2 0.6-4.2 1.8-5.8 3.4-1.3 1.2-2.2 2.6-2.7 4.3-0.8 1.6-1.2 3.3-1.1 5.1-0.1 2.4 0.5 4.6 1.7 6.6z" fill="#FF2B3F" p-id="3369"></path><path d="M600.3 427.2c3.4-5.6 3.1-13.3 3.2-19.7 0.1-6.3 0.2-12.7-0.1-19-0.5-10.4 0.3-36.4-15.1-36.4-15.8 0-10 26.1-9.3 35.5 0.5 6.6 1 13.2 1.6 19.8 0.5 6.1 0.7 14.6 4.5 19.7 3.9 5.3 11.5 6.2 15.2 0.1zM530.6 538.4c-4.3-1.6-8.7-0.6-13.1 0.1-4.1 0.6-8.2 1.2-12.2 1.8-7.5 1.1-15.1 2-22.6 2.6-7.9 0.7-15.8 1.1-23.7 1.2-3.8 0.1-7.6 0.1-11.4 0-6.3-0.1-10.2 0.9-14.1 6.3-1.9 2.6-1.8 7.3 0 9.9 3.8 5.5 7.7 6.5 14.1 6.4 3.8-0.1 7.6-0.2 11.4-0.4 8.5-0.4 17.1-1.1 25.6-2.2 8.5-1 16.9-2.2 25.3-3.8 7.9-1.4 18.6-2.4 24.4-8.5 4.3-4.5 1.9-11.2-3.7-13.4zM523.7 523.6c14.1 0.9 10.1-28 9.1-35-0.7-4.7-1.3-9.3-4.8-12.9-4.1-4.2-10.2-5.4-15.3-2.3-5.5 3.3-7.6 12.4-2.2 16.9 0.3 0.3 1 0.6 1.1 1-1.8-4-0.7 0.6-0.6 1.4 0.6 2.8 1.1 5.5 1.6 8.3 0.9 5.5 1.5 11 2.9 16.4 0.7 2.6 3.2 5.6 6 6 0.7 0 1.4 0.1 2.2 0.2z" fill="#FF2B3F" p-id="3370"></path><path d="M520.1 504.6c-9.4 1.7-18.5 5.2-28.2 6.3-5.4 0.6-10.8 1-16.2 1-2.7 0-5.4 0-8.1-0.2-1.7-0.1-4.2-0.3-4.3-0.4-3.7-0.6-5.9-1.2-8.2-2.7 1.3 0.8-0.3-0.2-0.8-0.7-1.2-1.3 0.6 1.3-0.2-0.3-0.8-1.5 0.2 1.4-0.2-0.5-0.2-0.7-0.3-0.2-0.1-1.7 0 0 0.6-1.7 1-2.2 0.9-1.2 2.7-2.5 3.9-3.7 1.3-1.4 2.5-2.9 3.9-4.1-1.3 1.2 0.3-0.1 0.9-0.5 1.4-0.9 2.7-2 4.1-3.1 7.8-6.1 1.5-21.3-8.4-20.2-8.1 0.9-12.6 4.9-17.9 10.6-5.1 5.4-9.7 10.2-11.2 17.8-2.9 15 6.5 27.4 20.4 31.8 12.5 4 27.1 2.7 39.8 0.9 7.2-1 14.2-2.6 21.1-4.7 6.8-2.1 17.7-4.6 19.5-12.6 1.5-6.9-4.2-12-10.8-10.8z" fill="#FF2B3F" p-id="3371"></path><path d="M524.5 480c-4.7-11.4-17.6-11-28.2-10.5-10.5 0.5-20.9 1.7-31.3 2.2-6.1 0.3-11.3 5-11.3 11.3 0 5.7 5.2 11.8 11.3 11.3 9.2-0.7 18.4-2 27.6-2.9 9-0.8 17.9-1.3 26.8-2.5 3.6-0.5 6.5-5.6 5.1-8.9zM536.1 450.7c4.2-6.8 5.6-15.1 6.8-22.9 1.1-7.7 2-15.5 1.7-23.3-0.2-7.6-1.4-15.4-3.6-22.6-2.6-8.4-6.4-20.1-16.7-20.3-3-0.1-6.9 1.8-8.2 4.7-2.5 5.6-1.6 9 1.1 14.2 1.2 2.4 2.3 4.6 3.2 7.2 2 6 3.1 12.2 3.6 18.5 0.5 6.9 0.4 13.8-0.3 20.7-0.6 6.6-2.1 13.4-1.5 20.1 0.5 7.1 9.8 10.4 13.9 3.7z" fill="#FF2B3F" p-id="3372"></path><path d="M523.8 431.7c-2.2 2.2-2.4 3.1-5.8 4.6-1.8 0.8-6.7 2.1-9.6 2.8-8.8 2.1-17.9 2.3-27 2.2-7.5-0.1-16 0.1-22.5-1.2-6.9-1.4-12.7-3.6-17.1-8.3-4.4-4.6-6.3-10.6-6.3-16.5 0-0.6 0.5-5.3 0.2-3.7 0.3-1.4 0.6-2.9 1-4.3 1.1-3.9 1.8-5.4 4-9.3 3.7-6.4 8.1-11.3 13.9-16.6 0.7-0.6 1.4-1.2 2-1.8-1.1 0.8-1 0.7 0.4-0.3 1.5-1 3.1-1.9 4.6-2.8 1.5-0.7 1.7-0.8 0.4-0.3l2.7-0.9c0.9-0.3 7.1-2.8 5.7-2.2 6.1-2.5 10.5-7.5 9.5-14.5-1-6.8-6.3-10.9-13-11.5-17.2-1.4-32 12.5-41.9 25-11.4 14.5-18.2 32.3-15.2 50.8 2.9 17.8 16.1 31.7 32.6 37.9 15.7 6 34.9 4.9 51.3 3.6 10-0.8 19.9-2.3 29.2-6.2 8.7-3.6 20.7-11.6 16-22.8-2.3-5.8-9.8-9.1-15.1-3.7z" fill="#FF2B3F" p-id="3373"></path><path d="M523.5 403.3c-8.2-7.2-20.1-7.9-30.6-8.5-10.6-0.6-22.9-0.5-32.6 4-4.6 2.1-6.6 8.5-5.3 13.1 1.4 5.2 6.1 8.1 11.2 8.5 4.3 0.4 8.6-0.8 12.9-1.2 4.6-0.4 9.3-0.8 13.9-0.9 8.7-0.3 18.7 1.6 27-1.5 5.2-1.9 8.5-9.1 3.5-13.5z" fill="#FF2B3F" p-id="3374"></path><path d="M498.5 429.5c0.4-8 0.9-16 1.7-24 0.3-3.3 0.7-6.5 1.3-9.7 0.9-5.1 2.8-10.2 0.9-15.3-2.7-7.4-12.8-11.9-19-5-6.4 7.3-5.9 19.7-5.9 29.1 0.1 9.2 1.3 18.3 3.9 27.2 2.9 9.7 16.6 7.5 17.1-2.3z" fill="#FF2B3F" p-id="3375"></path><path d="M533 361.4c-8.4-13.2-27.6-15.3-41.8-15.5-7.2-0.1-14.4 0.4-21.6 1-7.7 0.6-15.3 1.2-22.1 5.2-5.4 3.1-4.5 10 0 13.3 10.8 7.8 27.5 4.6 40 4.3 5.4-0.1 12.9 0.1 17 0.7 6.2 0.9 11.6 3.7 17.6 5.1 7.9 2 15.6-6.7 10.9-14.1z" fill="#FF2B3F" p-id="3376"></path><path d="M556.8 796.7c0 5.8-16.5 13.7-36.9 13.7s-36.9-7.9-36.9-13.7 16.5-10.4 36.9-10.4c20.5-0.1 36.9 4.6 36.9 10.4z" fill="#FF4A4A" p-id="3377"></path><path d="M520 816.3c-10.1 0-20.1-1.8-28.3-5.1-9.5-3.8-14.5-8.9-14.5-14.5 0-5.8 5.1-10.3 15.1-13.1 7.5-2.1 17.3-3.3 27.7-3.3 10.4 0 20.2 1.2 27.7 3.3 10 2.8 15.1 7.2 15.1 13.1 0 5.6-5 10.7-14.5 14.5-8.2 3.3-18.2 5.1-28.3 5.1zM490.2 797c3.8 2.9 15 7.4 29.8 7.4s26-4.5 29.8-7.4c-3.9-2.1-14.3-4.8-29.8-4.8s-26 2.7-29.8 4.8z m61.1 1.1z" fill="#91000A" p-id="3378"></path><path d="M520 796c-3.3 0-5.9-2.7-5.9-5.9v-48.9c0-3.3 2.7-5.9 5.9-5.9 3.3 0 5.9 2.7 5.9 5.9v48.9c0 3.3-2.6 5.9-5.9 5.9z" fill="#91000A" p-id="3379"></path><path d="M507.4 953.4V836.7" fill="#FF4A4A" p-id="3380"></path><path d="M507.4 959.4c-3.3 0-5.9-2.7-5.9-5.9V836.7c0-3.3 2.7-5.9 5.9-5.9 3.3 0 5.9 2.7 5.9 5.9v116.7c0 3.3-2.7 6-5.9 6z" fill="#91000A" p-id="3381"></path><path d="M532.2 953.4V836.7" fill="#FF4A4A" p-id="3382"></path><path d="M532.2 959.4c-3.3 0-5.9-2.7-5.9-5.9V836.7c0-3.3 2.7-5.9 5.9-5.9s5.9 2.7 5.9 5.9v116.7c0 3.3-2.7 6-5.9 6z" fill="#91000A" p-id="3383"></path><path d="M716.2 332.7c-1.8 0-3.5-0.8-4.7-2.3-6.1-7.9-17.5-19.9-33-35-2.3-2.3-2.4-6-0.1-8.4 2.3-2.3 6-2.4 8.4-0.1 11 10.7 25.8 25.7 34 36.2 2 2.6 1.6 6.3-1 8.3-1 0.9-2.3 1.3-3.6 1.3zM667.7 282.7c-1.5 0-2.9-0.5-4.1-1.6-1.7-1.6-2.6-2.5-2.6-2.5-2.4-2.2-2.6-6-0.3-8.4 2.2-2.4 6-2.6 8.4-0.3 0 0 1 0.9 2.7 2.5 2.4 2.2 2.5 6 0.3 8.4-1.2 1.3-2.8 1.9-4.4 1.9z" fill="#FFFFFF" p-id="3384"></path></svg>