<?xml version="1.0" standalone="no"?><!DOCTYPE svg PUBLIC "-//W3C//DTD SVG 1.1//EN" "http://www.w3.org/Graphics/SVG/1.1/DTD/svg11.dtd"><svg t="1578883205629" class="icon" viewBox="0 0 1024 1024" version="1.1" xmlns="http://www.w3.org/2000/svg" p-id="2499" xmlns:xlink="http://www.w3.org/1999/xlink" width="300" height="300"><defs><style type="text/css"></style></defs><path d="M55.3472 529.066667l456.362667 456.362666L968.072533 529.066667l0.290134-17.066667L511.709867 72.704 55.3472 512v17.066667z" fill="#996E28" p-id="2500"></path><path d="M512 79.781547l432.22528 432.22528L512 944.232107 79.77472 512.006827z" fill="#D5382E" p-id="2501"></path><path d="M512 968.362667L55.637333 512 512 55.637333 968.362667 512zM103.901867 512L512 920.098133 920.098133 512 512 103.901867z" fill="#E8D4AB" p-id="2502"></path><path d="M472.388267 418.6624c-3.652267 4.061867-8.106667 5.2736-18.261334 6.485333a333.346133 333.346133 0 0 1-41.796266 62.088534c81.5616 34.901333 39.355733 97.792 6.0928 66.56a160.426667 160.426667 0 0 0-8.533334-45.038934v170.410667c0 3.652267-17.442133 16.64-44.629333 16.64h-9.745067v-153.787733a326.4512 326.4512 0 0 1-53.9648 34.133333l-3.242666-3.242667c46.250667-44.629333 83.182933-107.52 98.594133-160.682666h-84.394667l-3.601066-11.4176h85.623466l29.627734-28.398934z m-125.781334-107.127467c119.688533 16.64 61.269333 103.867733 14.609067 63.709867-0.8192-22.3232-8.925867-45.448533-17.442133-62.088533z m112.7936 46.660267l-3.242666-11.3664H612.693333l27.5968-36.522667s31.6416 24.746667 50.312534 41.386667c-1.211733 4.471467-5.6832 6.485333-11.3664 6.485333z m232.106667 170.018133c-2.440533 3.242667-8.106667 6.826667-16.64 8.533334v144.452266c-0.4096 2.833067-27.1872 12.987733-45.038933 12.987734h-9.335467v-27.1872H513.365333v13.397333c0 5.2736-22.715733 17.066667-45.038933 17.066667h-7.714133V494.933333l55.176533 21.504h100.215467l24.746666-27.1872z m-87.2448-38.5536v-15.36H532.48v6.0928c0 4.471467-23.893333 15.8208-45.448533 15.8208h-7.304534v-121.361066l54.3744 20.701866h66.133334l24.337066-26.7776 51.524267 38.5536c-2.440533 3.242667-7.714133 6.826667-16.2304 8.533334v62.481066c-0.4096 2.440533-28.398933 11.3664-45.858133 11.3664z m-90.897067 38.161067v55.995733h31.232v-55.995733z m0 127.812267h31.232v-60.4672h-31.232z m90.88-192.733867v-55.995733H532.48v55.995733z m-12.987733 64.853333v55.995734h29.218133v-55.927467z m29.218133 127.812267v-60.398933h-29.201066v60.450133z" fill="#E8D4AB" p-id="2503"></path><path d="M512 875.997867L148.002133 512 512 148.002133 875.997867 512zM160.068267 512L512 863.931733 863.931733 512 512 160.068267z" fill="#E8D4AB" p-id="2504"></path></svg>