<?xml version="1.0" standalone="no"?><!DOCTYPE svg PUBLIC "-//W3C//DTD SVG 1.1//EN" "http://www.w3.org/Graphics/SVG/1.1/DTD/svg11.dtd"><svg t="1578883222010" class="icon" viewBox="0 0 1024 1024" version="1.1" xmlns="http://www.w3.org/2000/svg" p-id="3068" xmlns:xlink="http://www.w3.org/1999/xlink" width="300" height="300"><defs><style type="text/css"></style></defs><path d="M512.233 74.548l437.765 437.766-437.765 437.765L74.467 512.314z" fill="#FF6A48" p-id="3069"></path><path d="M512.3 960.3c-2.6 0-5.2-1-7.3-3L67.3 519.6c-4-4-4-10.5 0-14.5L505 67.3c4-4 10.5-4 14.5 0L957.2 505c4 4 4 10.5 0 14.5L519.5 957.3c-2 2-4.6 3-7.2 3z m-423.2-448l423.2 423.2 423.2-423.2L512.3 89.1 89.1 512.3z" fill="#7F0518" p-id="3070"></path><path d="M512.3 882.2c-2.6 0-5.2-1-7.3-3L145.4 519.6c-1.9-1.9-3-4.5-3-7.3 0-2.7 1.1-5.3 3-7.3L505 145.4c3.8-3.8 10.7-3.8 14.5 0L879.1 505c4 4 4 10.5 0 14.5L519.5 879.2c-2 2-4.6 3-7.2 3zM167.2 512.3l345.1 345.1 345.1-345.1-345.1-345.1-345.1 345.1z" fill="#FFC831" p-id="3071"></path><path d="M386.1 426.6c8.7 0.3 17.8 0 27.4-0.8s17.8 1.7 24.5 7.5c4.2-0.6 6.5 1.2 7.1 5.2 0.6 4.1 1.4 7.8 2.5 11.1-3.4 2.2-5.7 5-7.1 8.4-1.4 3.4-2.8 5.9-4.2 7.5-5.3 11.5-11.8 22.4-19.5 32.9-7.7 10.5-13.6 21.7-17.8 33.7 8.9 7 13.6 15.4 14 25.1 0.4 9.8 1.2 19.8 2.3 30.2 0.5 3.9 0.3 7.9-0.6 11.9-1 4.1-0.8 7.6 0.6 10.7-1.4 3.9-2.2 8.1-2.5 12.6-0.3 4.5-1 8.9-2.1 13.4 0.8 5 0.1 10.1-2.1 15.3-2.2 5.2-2.2 9.8 0 14-2.2 6.1-3.8 12.5-4.6 19.1-0.8 6.6-3.2 12.4-7.1 17.4-4.2-0.3-8-0.9-11.3-1.9-3.4-1-5.7-3.3-7.1-6.9-4.5-5.9-7.3-12.6-8.6-20.3-1.3-7.7-3.7-14.7-7.3-21.2 4.5-2.2 7.4-5.9 8.8-11.1 1.4-5.2 3.1-9.9 5-14-0.6-8.7 0.5-16.9 3.1-24.7 2.7-7.8 3-14.9 1.1-21.4 6.1-6.1 6.8-13 2.1-20.5-6.7 12-12.9 24.5-18.4 37.5-5.6 13-13.7 24.2-24.3 33.7-8.1 3.4-14.2 1-18.4-6.9-4.2-8-5.7-15.7-4.6-23.2-3.1-4.4-3.8-8.2-2.3-11.1 1.5-2.9 3.6-6.1 6.1-9.4 7.8-5 13.1-12.1 15.9-21.2 2.8-9.1 6.9-17.4 12.2-24.9 1.7-4.2 3.5-8.4 5.4-12.8 2-4.3 4.8-8.4 8.4-12.4 1.4-4.7 3.6-9.7 6.5-14.9 2.9-5.2 3-10.1 0.2-14.9-7.8 2-15.8 2.5-23.9 1.7s-15.4-3.1-21.8-6.7c-2.2-0.3-5-1.9-8.2-4.8s-5.4-5.9-6.7-8.8c-1.3-2.9-0.2-4.5 3.1-4.8 6.7 3.4 13 3.9 18.9 1.7 5.9-2.2 11.5-5.3 17-9.2 5.5-3.9 11.1-6.7 17-8.4 1.9-3.9 5-6.6 9.2-8 4.1-1.4 8.2-3.2 12.1-5.4z m-14.3-106c3.6 3.1 7.7 5.3 12.1 6.7 4.5 1.4 8.1 3.8 10.9 7.1 5.3 1.1 10.3 2.8 15.1 5 4.7 2.2 9.8 4.3 15.1 6.3 8.9 4.7 17.9 10.9 26.8 18.4 8.9 7.5 14.4 16.8 16.3 27.6 4.2 9.2 3.3 15.6-2.7 19.1-6 3.5-13.2 4.5-21.6 2.9-8.4-1.5-14.1-5.8-17.2-12.8-4.8-1.7-8.7-4.9-11.7-9.6-3.1-4.7-6.2-9.1-9.2-13-3.1-3.9-7.5-6.4-13.4-7.6 1.1-9.8-2.1-18.2-9.6-25.1-0.3-2.8-2.1-5.8-5.5-9s-6-6.1-8-8.8c-1.8-2.5-1-5 2.6-7.2z m57 199.4c5-1.1 9.2 0.2 12.6 3.8 3.4 3.6 7 6.4 10.9 8.4v43.1c-0.8 4.8-0.6 9.4 0.8 14s0.1 7.7-3.8 9.4c-7.3-3.4-11.7-8.7-13.4-16.1-1.7-7.4-4.1-14.2-7.1-20.3 0-1.1 1.5-3.3 4.6-6.7 3.1-3.3 4.1-7.5 2.9-12.6 1.1-4.7 0.4-8.7-2.3-11.9-2.6-3.2-4.4-6.9-5.2-11.1z m89.6-188.1c3.9 0.3 6.8 2.3 8.8 6.1 2 3.8 4.5 7.2 7.6 10.3 7-0.8 13.7-2.2 20.3-4 6.5-1.8 13.6-2.7 21.2-2.7 8.6 0.3 17.5 1.3 26.6 3.1 9.1 1.8 16.3 6.1 21.6 12.8 3.9 5 4.5 9.2 1.9 12.4-2.7 3.2-5.5 6.8-8.6 10.7-5.3 7.6-11.7 13.6-19.3 18.2-7.5 4.6-14.9 10-22.2 16.1-3.4 2.8-7.6 5.9-12.8 9.4-5.2 3.5-7.1 7.2-5.7 11.1 9.2-3.1 19.3-5.2 30.4-6.5 11-1.3 19.9 2.5 26.6 11.1 3.1 9.5 2.4 18.9-1.9 28.1s-10.4 16.8-18.2 22.6c-4.8 6.4-10.4 10.6-17 12.6s-12.4 5.5-17.4 10.5c-3.6-1.1-7.2-0.1-10.7 2.9-3.5 3.1-3.1 5.3 1.1 6.7 13.7-2.5 26.9-4.8 39.6-6.9 12.7-2.1 26.3-3 40.8-2.7 3.9-2.2 8.4-3 13.4-2.3 5 0.7 9.2 0.8 12.6 0.2 9.8 0.6 18.7 2.8 26.8 6.7 7.8-0.3 14.2 2.3 19.1 7.8 4.9 5.4 8.7 11.1 11.5 17 1.7 3.4 2.2 6.6 1.5 9.8-0.7 3.2-2 6.4-4 9.4-3.3 5-5.6 10.7-6.9 17-1.3 6.3-3.6 11.9-6.9 17-0.8 9.2-3.1 17.7-6.9 25.6-3.8 7.8-6.2 16.2-7.3 25.1-10.1 13.7-19 27.4-26.8 41-2.5 3.6-6 6.6-10.5 9-4.5 2.4-8.7 4-12.6 4.8-7.8-0.6-15.6-3.9-23.2-10.1-7.7-6.1-13.1-13.4-16.1-21.8-21.5 5.6-43 10.9-64.5 15.9-5.6-2.5-8.7-1.4-9.4 3.4-0.7 4.7-2.2 8.9-4.4 12.6-6.7 3.6-12.6 2.9-17.6-2.3-5-5.2-9.9-9.7-14.7-13.6 0-2.8-1-5.6-3.1-8.4-2.1-2.8-2.6-5.3-1.5-7.6-2.5-4.2-4.6-8.5-6.1-13s-4.1-8.5-7.7-12.2c-2-5.9-1.9-12.2 0.2-18.9 2.1-6.7 2.9-13.5 2.3-20.5 0.8-3.1 1.1-5.5 0.6-7.3-0.4-1.8 0.1-3.8 1.5-6.1-0.6-9.2 0.1-17.9 2.1-26.2 1.9-8.2 3.6-16.4 5-24.5 2.2-5.3 5.2-6.6 8.8-3.8 3.6 2.8 6.1 6.3 7.5 10.5 5.6-2.2 10.3-5.9 14.2-11.1 3.9-5.2 6.7-10.8 8.4-17 4.2-3.3 9-7.3 14.5-11.7 5.5-4.5 10-9.6 13.6-15.5 14.8-10.1 26.1-22.9 33.9-38.5 2.5-3.4 2.7-5.5 0.6-6.5s-4.6-0.9-7.5 0.2c-2.9 1.1-4.4 3.2-4.4 6.3-7.3 5-14.7 9.8-22.2 14.2-7.6 4.5-14.7 9.5-21.4 15.1-5 2.8-8.2 1.3-9.6-4.4-1.4-5.7-2.8-10.3-4.2-13.6 0.3-10.3 3.2-19.3 8.8-27 5.6-7.7 12.6-14.9 20.9-21.6-0.8-4.2 0.5-8.1 4-11.7 3.5-3.6 3.9-7.2 1.1-10.9-10.3-4.7-17.4-12-21.2-21.8-3.8-9.8-5.4-20.1-4.8-31 2.5-2 3-3.2 1.5-3.8-1.5-0.6-2.9-1.3-4-2.1-1.2-0.8-0.3-2 2.4-3.7z m22.7 218.7c-5.6 0-10.8 1.6-15.7 4.6-4.9 3.1-10.1 4.6-15.7 4.6-5.6-1.7-10.2-1.1-13.8 1.7-3.6 2.8-3.8 6.9-0.4 12.2-0.6 5.6-0.1 11 1.5 16.1 1.5 5.2 5.1 8.9 10.7 11.1 12-4.4 23.2-9.8 33.5-15.9 5.6-1.1 9.9-3.6 13-7.6 3.1-3.9 3.6-8.4 1.7-13.4 1.4-5.3 0.7-9.9-2.1-13.6-2.9-3.8-7.1-3.7-12.7 0.2z m-39 73.7l2.9 18c1.7 4.2 3.2 9.3 4.6 15.3 1.4 6 5.3 7.1 11.7 3.2 3.4 1.4 7.2 1.3 11.5-0.4 4.3-1.7 7.1-4.6 8.2-8.8 5-1.9 7.4-5.7 7.1-11.1-0.3-5.5 0.6-10.1 2.5-14-3.9-1.4-8.3-1.1-13.2 1-4.9 2.1-9.6 3.3-14 3.6-4.2 0.6-8-0.8-11.5-4-3.4-3.3-6.7-4.2-9.8-2.8z m28.1-98.9l2.1 2.1c5.3 0.3 7.1-0.9 5.2-3.6-1.8-2.6-4.3-2.1-7.3 1.5z m96.3 17.6h-11.7c-5.3 3.4-11.3 4.1-18 2.3-6.7-1.8-12.9-1.6-18.4 0.6 0.8 7.3 3.6 13.7 8.4 19.3 4.8 5.6 11.3 7.7 19.7 6.3 6.1-1.1 11.7-0.6 16.8 1.5 5 2.1 8.7 6.1 10.9 11.9-2.2 5.3-5.9 8.7-11.1 10.3-5.2 1.5-10.6 2.9-16.3 4.2-5.7 1.3-10.5 4.3-14.4 9 0.5 3.3 0.5 7 0 10.9-0.6 3.9-0.6 7 0 9.2-3.6 2.8-5.2 6.6-4.6 11.3 0.6 4.8 3.6 6.4 9.2 5 10.1 2 17.6-0.6 22.6-7.5 5-7 8.2-14.5 9.6-22.6 2.8-3.9 4.8-8.1 5.9-12.6 1.1-4.5 3.1-8.6 5.9-12.6-0.6-5.3 0.1-10.3 2.1-15.1 2-4.7 3.5-9.6 4.6-14.7 2.2-7.5 0.9-13.1-4-16.8-5.1-3.5-10.7-3.5-17.2 0.1z" fill="#7F0518" p-id="3072"></path></svg>