<?xml version="1.0" standalone="no"?><!DOCTYPE svg PUBLIC "-//W3C//DTD SVG 1.1//EN" "http://www.w3.org/Graphics/SVG/1.1/DTD/svg11.dtd"><svg t="1578883244967" class="icon" viewBox="0 0 1024 1024" version="1.1" xmlns="http://www.w3.org/2000/svg" p-id="4395" xmlns:xlink="http://www.w3.org/1999/xlink" width="300" height="300"><defs><style type="text/css"></style></defs><path d="M921.1 532.8L528.7 925.2c-9.2 9.2-24.2 9.2-33.4 0L102.9 532.8c-9.2-9.2-9.2-24.2 0-33.4L509.5 92.7c1.4-1.4 3.6-1.4 5 0l406.6 406.6c9.2 9.3 9.2 24.3 0 33.5z" fill="#FFAC33" p-id="4396"></path><path d="M512 950.5c-10.8 0-21.6-4.1-29.8-12.3L89.9 545.8c-16.4-16.4-16.4-43.1 0-59.5L496.5 79.7c8.2-8.3 22.8-8.3 31.1 0l406.6 406.6c7.9 7.9 12.3 18.5 12.3 29.7s-4.4 21.8-12.3 29.8L541.8 938.2c-8.2 8.2-19 12.3-29.8 12.3z m0-834.1l-396 396c-2 2-2 5.3 0 7.3l392.4 392.4c2 2 5.3 2 7.3 0l392.4-392.4c1.3-1.3 1.5-2.7 1.5-3.7s-0.3-2.4-1.5-3.7L512 116.4z m-10.6-10.6c0.1 0 0.1 0 0 0z m21.2 0z" fill="#840000" p-id="4397"></path><path d="M809.5 635.9c2.7 2.7 7 2.7 9.7 0l114.3-114.3c2.7-2.7 2.7-7 0-9.7L815.1 393.4c-0.4-0.4-1-0.4-1.4 0l-4.1 4.1c-65.9 65.9-65.9 172.6-0.1 238.4z" fill="#FF4633" p-id="4398"></path><path d="M814.4 656.4c-6.5 0-13-2.5-17.9-7.4-72.9-72.9-72.9-191.5 0-264.4l4.2-4.2c3.5-3.6 8.5-5.7 13.7-5.7h0.1c5.1 0 10.1 2.1 13.8 5.7l118.5 118.5c9.9 9.9 9.9 25.9 0 35.8L832.3 648.9c-4.9 5-11.4 7.5-17.9 7.5z m8.2-33.5z m-7.9-203.8c-48 56-48 139.3 0 195.3l97.7-97.7-97.7-97.6z m12.1-12.7l-0.2 0.2 0.2-0.2z" fill="#840000" p-id="4399"></path><path d="M214.5 635.9c-2.7 2.7-7 2.7-9.7 0L90.4 521.6c-2.7-2.7-2.7-7 0-9.7l118.5-118.5c0.4-0.4 1-0.4 1.4 0l4.1 4.1c65.9 65.9 65.9 172.6 0.1 238.4z" fill="#FF4633" p-id="4400"></path><path d="M209.6 656.4c-6.5 0-13-2.5-17.9-7.4L77.4 534.6c-9.9-9.9-9.9-25.9 0-35.8l118.5-118.5c3.6-3.6 8.6-5.7 13.8-5.7h0.1c5.2 0 10.2 2.1 13.8 5.8l4 4c72.9 72.9 72.9 191.5 0 264.4-5 5.1-11.5 7.6-18 7.6z m-98-139.7l97.7 97.7c48-56 48-139.3 0-195.3l-97.7 97.6z m85.7-110.2l0.2 0.2-0.2-0.2z" fill="#840000" p-id="4401"></path><path d="M181.766 516.018l330.286-330.286L842.34 516.018 512.052 846.305z" fill="#FF4633" p-id="4402"></path><path d="M512 864.8c-4.9 0-9.6-1.9-13-5.4L168.7 529.1c-7.2-7.2-7.2-18.9 0-26.1L499 172.8c6.9-6.9 19.2-6.9 26.1 0L855.3 503c7.2 7.2 7.2 18.9 0 26.1L525 859.4c-3.4 3.4-8.1 5.4-13 5.4zM207.8 516.1L512 820.3l304.2-304.2L512 211.9 207.8 516.1z" fill="#840000" p-id="4403"></path><path d="M422.2 625.1c4.6 4.6 5.1 11.1 1.4 19.4-1.9 4.6-5.5 11.5-11.1 20.8-1.9 2.8-3.2 4.6-4.2 5.5-5.5 6.5-13.4 6.9-23.6 1.4-8.3-5.5-10.6-12.5-6.9-20.8 2.8-8.3 7.8-17.1 15.3-26.3H357c-9.3-0.9-13.9-7.4-13.9-19.4 0-13 4.6-19.9 13.9-20.8h51.3c-12-29.6-34.2-63.3-66.6-101.2-6.5-8.3-6-16.6 1.4-25 7.4-7.4 15.3-7.9 23.6-1.4 7.4 6.5 12.9 12.5 16.6 18V363c0.9-9.2 7.4-14.3 19.4-15.3 11.1 0.9 17.1 6 18 15.3v123.4l4.2-4.2 6.9-6.9c8.3-5.5 15.3-5.1 20.8 1.4v-92.9c0-19.4 8.8-28.6 26.3-27.7h147c18.5-0.9 27.3 7.4 26.3 25v108.2c0.9 19.4-9.3 28.6-30.5 27.7h-140c-13.9 0-23.1-4.2-27.7-12.5 0 1.8-1.4 4.2-4.2 6.9-8.3 9.2-16.6 18-25 26.3 3.7 5.5 9.7 16.6 18 33.3 4.6 8.3 7.8 14.3 9.7 18 9.2 22.2 4.6 34.2-13.9 36.1h-16.4z m44.4 37.4c-8.3-0.9-13-6.9-13.9-18 0.9-11.1 5.5-17.1 13.9-18h181.6c9.2 0.9 14.3 6.9 15.3 18-0.9 11.1-6 17.1-15.3 18H466.6z m-4.1-113.7c-0.9-15.7 6.9-23.1 23.6-22.2h133.1c17.5-0.9 25.9 6.5 25 22.2v41.6c0 16.6-8.3 25-25 25H487.4c-16.6 0-25-7.9-25-23.6v-43h0.1z m29.1-73.5c-0.9 2.8 0.5 4.2 4.2 4.2h37.4v-26.3h-41.6v22.1z m4.1-84.6c-3.7 0-5.1 1.4-4.2 4.2v23.6h41.6v-27.7h-37.4v-0.1z m106.8 190c2.8 0 4.2-1.4 4.2-4.2v-11.1c0-3.7-1.4-5.5-4.2-5.5h-97.1c-3.7 0-5.5 1.8-5.5 5.5v11.1c0 2.8 1.8 4.2 5.5 4.2h97.1zM615 453.1h-43v26.3h38.8c2.8 0 4.2-1.4 4.2-4.2v-22.1z m-43-62.4v27.7h43v-23.6c0-2.8-1.4-4.2-4.2-4.2H572v0.1z" fill="#840000" p-id="4404"></path><path d="M880.7 279.4c-28.8-17.5-66.2-8.3-83.7 20.4-17.5 28.8-8.3 66.2 20.4 83.7 28.8 17.5 66.2 8.3 83.7-20.4s8.4-66.2-20.4-83.7zM851.1 354l-22.9-13.9c-2.3-1.4-3-4.3-1.6-6.6l13.9-22.9c1.4-2.3 4.3-3 6.6-1.6l22.9 13.9c2.3 1.4 3 4.3 1.6 6.6l-13.9 22.9c-1.4 2.2-4.3 3-6.6 1.6z" fill="#840000" p-id="4405"></path><path d="M851 115.4c-31.6-29.7-81.2-28.2-110.9 3.4s-28.2 81.2 3.4 110.9c31.6 29.7 81.2 28.2 110.9-3.4 29.7-31.5 28.2-81.1-3.4-110.9z m-57.2 86.1l-25.1-23.6c-2.5-2.3-2.6-6.2-0.3-8.7L792 144c2.3-2.5 6.2-2.6 8.7-0.3l25.1 23.6c2.5 2.3 2.6 6.2 0.3 8.7l-23.6 25.1c-2.3 2.6-6.3 2.7-8.7 0.4z" fill="#840000" p-id="4406"></path></svg>