<?xml version="1.0" standalone="no"?><!DOCTYPE svg PUBLIC "-//W3C//DTD SVG 1.1//EN" "http://www.w3.org/Graphics/SVG/1.1/DTD/svg11.dtd"><svg t="1578883208871" class="icon" viewBox="0 0 1137 1024" version="1.1" xmlns="http://www.w3.org/2000/svg" p-id="2641" xmlns:xlink="http://www.w3.org/1999/xlink" width="333.10546875" height="300"><defs><style type="text/css"></style></defs><path d="M87.24590133 513.076041l513.075754-513.075753 510.92168 510.92168-513.075753 513.075753-510.921681-510.92168Z" fill="#FF6E74" p-id="2642"></path><path d="M232.04664033 517.805249l285.836683-285.84243 284.669885 284.664137-285.842431 285.836683z" fill="#F4E834" p-id="2643"></path><path d="M511.04347533 1002.802218a74.721031 74.721031 0 0 1-52.822021-21.841532L43.40477633 565.914098a74.721031 74.721031 0 0 1 0-105.644043L460.29065133 43.154269a74.721031 74.721031 0 0 1 105.644043 0l415.046588 415.046589a74.721031 74.721031 0 0 1 0 105.644042l-417.115786 417.115786a74.721031 74.721031 0 0 1-52.822021 21.841532zM513.11267233 55.741889a40.234401 40.234401 0 0 0-28.451469 11.782932L67.60289533 484.640607a40.234401 40.234401 0 0 0 0 56.902939l415.046588 415.046588a40.234401 40.234401 0 0 0 56.902939 0l417.058308-417.058308a40.234401 40.234401 0 0 0 0-56.902939L541.62162033 67.524821A40.234401 40.234401 0 0 0 513.17015033 55.741889z" fill="#EA3038" p-id="2644"></path><path d="M480.86767433 388.537866c3.793529-1.321987 11.495543-2.52902 8.736613-8.851569-18.795213-24.083163-50.178046-3.908485-75.295809-12.587619-3.793529 6.322549-16.151238 6.322549-11.495543 16.496104 21.38171 20.462067 51.729945 1.321987 77.824828 5.115517z m174.502346 130.934237c0-17.818092-25.117762-20.462067-31.382833-36.843216 1.26451-29.256158-13.794652-76.272929 20.232156-94.091021 1.26451-3.793529-2.471542-6.322549-5.058039-8.851569-36.383394-8.851568-74.146254 3.793529-110.529648 0-2.471542 3.736052-6.322549 10.116078-2.471542 15.231595l16.323671 1.321988c7.529581 6.322549 3.793529 19.025124 3.79353 27.991647-7.529581 25.462628 8.736613 59.776825-11.495544 78.801949-28.738858 41.958733-6.265071 97.712117 16.323672 136.049754 18.795213 8.851568 47.706504 15.289072 66.559195 1.321988 37.647904-27.991648 41.441433-76.272929 37.647904-120.703204zM571.28012133 396.182402c12.530142 0 27.646781-1.321987 36.383395 7.644536a20.6345 20.6345 0 0 1-5.000562 15.289073c-12.530142-1.321987-31.382833 11.495543-37.647904-6.322549 0-6.322549-3.793529-16.496105 6.265071-16.496105z m27.531826 59.431958c-11.495543-1.321987-23.853252 3.793529-30.118323-5.058039-2.471542-6.322549 3.793529-12.760053 8.736613-15.289072a55.580952 55.580952 0 0 1 25.117762 5.058039 15.978805 15.978805 0 0 1-3.793529 15.289072z m-26.324794 167.892409c-8.736613 2.52902-18.852691-8.966524-22.64622-16.496104-2.471542-8.851568-7.529581-20.462067 0-27.991648 6.265071-3.793529 23.853252-12.702575 26.43975 1.321988-5.058039 15.289072 0 27.991648-3.79353 43.28072z m-3.793529-73.743909c-8.909046 1.436943-18.795213 1.436943-22.358832-7.357148-2.471542-10.173556 2.471542-17.818092 5.000562-25.462628 7.529581-2.52902 21.38171-10.173556 25.117762 1.321987 1.26451 11.495543 3.793529 26.66966-7.529581 31.785177z m-3.793529-61.098813a5.747772 5.747772 0 0 1-2.816408-3.27623 5.747772 5.747772 0 0 1 0.344866-4.368306c7.529581-13.967085 28.738858-8.851568 40.234401-6.322549 3.793529 25.462628-25.117762 10.173556-37.647904 13.967085z m37.647904 130.934238a52.304722 52.304722 0 0 1-3.793529-39.429714c5.058039-11.495543 20.232156-8.851568 31.382833-7.644536 0 17.818092-10.0586 39.429713-27.646782 47.016772z m26.324794-72.4794c-15.116639-6.322549-40.234401 7.644536-33.681942-20.462067a22.991086 22.991086 0 0 1 12.530142-17.818092c12.58762-3.793529 18.795213 6.322549 23.853252 15.231594 1.26451 6.322549 5.058039 17.818092-2.471541 22.991087zM503.22650533 431.761108l-12.530142-6.322549c-33.681942-3.793529-66.501718 0-102.942589 2.52902C377.69517333 426.760547 377.69517333 438.141135 377.69517333 444.521161c15.001684 16.496105 33.681942-3.793529 50.178046 6.322549 13.449786 69.950381-2.471542 139.900761 7.529581 211.058174h5.058039c5.058039 0 6.265071-6.322549 10.058601-8.851569V455.61436c11.495543-29.256158 48.971014 6.322549 52.764543-24.14064z" fill="#EA3038" p-id="2645"></path><path d="M498.05351133 519.644536c-8.794091-14.944206 1.26451-38.567548-11.495543-52.247244-5.058039 0-11.495543-6.207593-12.472665 2.471542 2.471542 42.303599 6.265071 84.54972 8.736613 126.795842 5.058039 11.495543 1.26451 32.359954 15.059162 34.831496 7.529581 1.26451 8.736613-6.207593 7.52958-12.415187-11.495543-31.095444-2.471542-64.662431-7.52958-99.493926zM394.01884533 481.076989c-2.471542 47.246683-4.943084 94.493365-8.736613 141.68257 2.471542 9.943645 11.495543 1.26451 16.266193 1.26451 11.093199-31.037967 10.001123-69.548037 13.737175-104.379533a75.928063 75.928063 0 0 1 0-33.394553c3.736052-12.415187-20.117201-21.1518-21.266755-4.943083z" fill="#EA3038" p-id="2646"></path></svg>