<?xml version="1.0" standalone="no"?><!DOCTYPE svg PUBLIC "-//W3C//DTD SVG 1.1//EN" "http://www.w3.org/Graphics/SVG/1.1/DTD/svg11.dtd"><svg t="1578883248509" class="icon" viewBox="0 0 1024 1024" version="1.1" xmlns="http://www.w3.org/2000/svg" p-id="4543" xmlns:xlink="http://www.w3.org/1999/xlink" width="300" height="300"><defs><style type="text/css"></style></defs><path d="M512.88064 1005.55776L17.152 509.83424l495.72864-495.72352 495.72352 495.72352z" fill="#C01E20" p-id="4544"></path><path d="M623.9744 619.9552s20.20352 8.79616 20.20352 38.91712c0 30.12608 0 40.0384-8.04352 57.44128s-60.25216 1.68448-67.54816-2.99008c-7.29088-4.67456-24.50432-22.08256-28.99968-60.43648-4.49024-38.35392 0.5632-50.70336 29.37344-49.77152 6.92736 0 19.46112 2.43712 26.0096 4.49536 6.54336 2.05312 11.22304 2.432 19.08736-3.00032 7.8592-5.4272 16.27648-16.83456 24.69888-23.57248 8.41728-6.73792 23.94624-13.66016 28.81024-18.52416s14.40256-17.39776 11.41248-24.8832c-6.7328 4.49024-34.048 24.87808-52.57728 32.55296-18.52416 7.66976-60.25216 24.8832-69.98016-6.54336-9.728-31.4368 9.5488-34.80576 14.03392-43.60192 4.48512-8.79104 0.74752-7.48544-4.864-3.17952-5.61664 4.30592-30.49472 23.19872-34.61632 27.50464-4.11648 4.30592-8.22784 6.17472-2.432 14.0288 4.67456 5.61664 5.98528 32.36864-0.37376 45.2864-6.36416 12.90752-9.92256 16.09216-9.72288 22.07232 0.1792 5.9904 11.21792 9.16992 17.01888 32.18944 5.79584 23.00928 2.43712 41.34912-15.71328 47.3344s-9.35936-9.728-18.71872-13.47584c-9.34912-3.7376-23.1936 1.8688-53.88288 16.83968-30.68416 14.97088-64.73216 17.77664-72.41216 6.54848-7.66464-11.22304-8.04352-11.60192-8.97536-20.39296-0.93696-8.79616-2.99008-13.47072-5.05344-18.51904-2.05824-5.05344-12.71808-23.0144 11.78112-25.07264 24.51456-2.05824 49.59232-19.82976 64.74752-28.25216s24.87808-14.40768 35.36384-14.97088c10.47552-0.55808 17.95584 1.12128 20.21376 0.55808 2.23232-0.55808 7.09632-4.11648 7.09632-12.90752 0-8.79104-1.86368-10.28608-3.92704-12.53888-2.05824-2.24256-5.23264-2.432-4.29568-11.41248-0.19456-2.99008-0.384-6.73792-5.23776-3.92704-4.86912 2.80576-63.616 44.15488-87.56736 55.00416-23.95136 10.85952-46.21312 17.77664-55.94624-2.05824-9.728-19.82976 6.7328-34.24256 25.26208-45.64992s27.12576-18.1504 27.12576-18.1504-22.83008-17.77152-19.82976-31.05792c2.99008-13.2864 10.66496-10.84928 46.592-19.08224 35.9168-8.23296 64.36352-15.90272 69.03808-16.46592 4.67968-0.55808 8.79104-5.43232 11.136-8.23296 2.33984-2.81088 8.69888-12.53888 11.31008-19.64544 2.61632-7.11168 5.24288-17.21344 4.48512-26.01472-0.74752-8.78592-0.55296-19.82976 0.384-32.92672 0.93184-13.10208 0.55808-19.65056-5.8112-20.76672-6.35392-1.1264-19.456 1.3056-32.37376 16.4608-4.11136 5.04832-7.4752 15.34464 4.87424 16.8448 12.35456 1.49504 23.19872 2.80576 23.58272 6.1696 0.36352 3.37408 1.11616 5.61664 0 6.5536-1.1264 0.93184-3.3792 1.8688-8.2432 6.35392-4.86912 4.49024-9.73312 10.29632-19.82976 19.456-10.10176 9.17504-32.75264 28.63616-48.2816 36.30592-15.52896 7.66976-57.81504 30.21312-107.20768 8.84224-49.38752-21.376-53.62176-62.76608-38.0416-94.75584 15.57504-32 39.57248-75.77088 80.40448-102.71744 18.944-7.5776 34.16064-9.32864 50.62656-2.21184 16.46592 7.10144 20.39296 8.79104 28.99968 7.29088 8.61184-1.49504 29.19424-11.78112 48.65536-6.91712 19.45088 4.864 23.94112 11.60192 33.66912 17.01888 9.728 5.43232 14.03392 11.23328 20.39808 23.5776 6.35904 12.34944 13.47072 6.92224 16.83456 28.99968 3.36384 22.08256 5.61664 60.81024 7.11168 60.80512 1.50016 0 7.67488-8.98048 7.67488-28.81536-0.00512-19.82976-0.5632-31.43168-2.81088-48.26624-2.24256-16.83968-8.98048-46.96064-0.74752-51.64032 8.23296-4.67968 27.6992-12.91264 43.22304 0.93184 9.35424 5.23776 11.79136 17.5872 11.41248 37.98016-0.37376 20.39808 1.8688 40.97536 4.11648 41.16992a767.488 767.488 0 0 0 21.89312-20.5824c10.10176-9.91744 26.76224-22.45632 43.21792-20.02432 16.46592 2.43712 24.13568 16.66048 33.3056 28.06272 9.1648 11.41248 16.83968 25.82016 6.92224 41.91744-2.62144 3.92704-8.60672 8.97536-17.39776 13.4656s-18.52416 17.02912-24.50944 21.33504-28.0576 18.14528-25.82016 20.57728c1.8688 0.56832 43.5968 5.4272 51.456 20.39808 7.85408 14.97088 12.53376 31.43168 7.66976 38.72768-4.86912 7.30624-7.67488 20.77696-63.05792 55.76704-6.71744 4.864-42.2656 27.69408-46.38208 38.1696z" fill="#E8DE31" p-id="4545"></path><path d="M484.01408 544.7424s-9.54368-12.06784-11.22304-16.27648c-3.64544 2.24256-37.04832 42.93632-42.37312 47.98464 8.97024-3.08224 33.11104-12.63104 53.59616-31.70816zM522.368 506.37824h-2.048s-4.49536-7.67488-17.024-9.72288c-0.384-1.1264 11.02848-6.17472 19.07712-13.47072 8.04352-7.30112 10.10176-9.92256 11.97568-12.16 1.8688-2.24768 4.11648-5.98528 7.10656-3.18464 3.00032 2.80576-2.80576 8.23296-4.3008 10.10176-1.48992 1.87392-2.24768 4.80256-1.8688 8.66304 0.37888 3.87072-5.05856 10.32704-8.04352 13.09184-2.99008 2.75456-4.87424 6.6816-4.87424 6.6816zM510.7712 348.65664c-1.93024 5.08416-4.85376 2.05312-6.35904 0.93184l-1.49504-1.12128s-5.79584-4.29568-9.1648-4.11648c-3.36896 0.18944-6.17984 4.30592-8.61696-6.35904s0.94208-19.08736 4.49536-19.08736 11.22816 0.37376 10.66496 5.80096c-0.5632 5.4272-0.74752 9.91744 3.36896 12.34944 4.11648 2.42688 8.6016 7.66976 7.10656 11.60192zM410.48064 376.53504c-2.43712 1.92-10.65984 1.31072-22.26688 5.98528-3.17952 1.6896-9.91744 2.432-10.66496-1.31072 0.93696-3.54816 13.2864-34.42688 14.03392-36.48512 0.75264-2.05312 3.36896-3.17952 7.66976-5.05344 4.31104-1.8688 8.23296-7.48032 10.48064-8.97024l2.23744-1.50016s8.05888-2.01216 8.05376 6.01088c0.00512 8.0128-4.30592 37.20192-9.54368 41.32352zM402.24768 404.40832c-2.12992-2.13504-13.27616 1.6896-15.52384 0.93184-2.24768-0.74752-5.61664-2.05312-7.86432-5.61152-2.24256-3.55328-7.10144-6.35904-9.35424-5.98016-2.80576 2.05312-4.11136 2.99008-7.8592 18.51904-3.73248 15.53408-7.48544 21.51936-9.35424 23.38816-1.87392 1.87392 1.12128 5.23776 9.35424 9.16992 8.22784 3.93216 25.26208 9.73312 31.24224 8.4224 5.99552-1.31584 27.32544-9.17504 27.136-11.97568-0.18432-2.81088-4.49024-23.5776-17.77664-36.864z" fill="#CC1A1C" p-id="4546"></path><path d="M904.3456 563.52256l-24.32512-24.33024 24.32512-24.33024 24.33024 24.33024-24.33024 24.33024z m-17.08544-24.33024l17.08544 17.09056 17.09056-17.09056-17.09056-17.09056-17.08544 17.09056z" fill="#E8DE31" p-id="4547"></path><path d="M904.3456 522.10176l-13.97248-13.97248 13.97248-13.97248 13.97248 13.97248-13.97248 13.97248z m-6.7328-13.97248l6.72768 6.7328 6.7328-6.7328-6.7328-6.7328-6.72768 6.7328z" fill="#E8DE31" p-id="4548"></path><path d="M936.69888 531.16416l-24.33024-24.33024 24.33024-24.32 24.32512 24.32-24.32512 24.33024z m-17.09056-24.33024l17.09056 17.09056 17.08544-17.09056-17.08544-17.08032-17.09056 17.08032zM905.64096 500.10624l-24.32512-24.32512 24.32512-24.32512 24.32512 24.32-24.32512 24.33024z m-17.08544-24.33024l17.08544 17.08544 17.08544-17.09056-17.08544-17.08032-17.08544 17.08544z" fill="#E8DE31" p-id="4549"></path><path d="M879.03744 588.83072l-17.34656-17.34144 3.61984-3.61984 13.72672 13.7216 11.90912-11.90912-31.06816-31.06304 30.49472-30.4896-30.45888-30.45888 32.35328-32.3584-11.91424-11.90912-14.94016 14.94016-3.61984-3.61984 18.56-18.56 19.15904 19.1488-32.3584 32.3584 30.45888 30.45888-30.49472 30.4896 31.06816 31.06304z" fill="#E8DE31" p-id="4550"></path><path d="M706.56 761.30304l-3.61984-3.61984 156.93824-156.93824-15.52384-15.53408 19.14368-19.1488 17.34656 17.33632-3.61984 3.61984-13.72672-13.71648-11.904 11.90912 15.52384 15.53408zM863.60576 450.15552l-19.1488-19.1488 16.74752-16.75264-156.93824-156.94336 3.61984-3.61984 160.55808 160.5632-16.74752 16.75264 11.90912 11.90912 14.94016-14.94528 3.61984 3.61984z" fill="#E8DE31" p-id="4551"></path><path d="M120.34048 568.064l-24.33024-24.32512 24.33024-24.33536 24.32512 24.33536-24.32512 24.32512z m-17.08544-24.32512l17.09056 17.08544 17.08544-17.08544-17.08544-17.09568-17.09056 17.09568z" fill="#E8DE31" p-id="4552"></path><path d="M120.34048 526.6432l-13.97248-13.97248 13.97248-13.97248 13.97248 13.97248-13.97248 13.97248z m-6.7328-13.97248l6.7328 6.7328 6.7328-6.7328-6.7328-6.7328-6.7328 6.7328z" fill="#E8DE31" p-id="4553"></path><path d="M87.9872 535.71072l-24.33024-24.32512 24.33024-24.33024 24.32512 24.33024-24.32512 24.32512z m-17.09056-24.33024l17.09056 17.08544 17.08544-17.08544-17.08544-17.09056-17.09056 17.09056zM119.05024 504.64768L94.72 480.31744l24.32512-24.32 24.33024 24.32512-24.32512 24.32512z m-17.09056-24.33024l17.09056 17.09056 17.08544-17.08544-17.09056-17.08544-17.08544 17.08032z" fill="#E8DE31" p-id="4554"></path><path d="M145.64864 593.37728l-19.14368-19.1488 31.06304-31.06304-30.49472-30.49472 30.464-30.45888-32.35328-32.35328 19.1488-19.1488 18.55488 18.56-3.61984 3.61984-14.93504-14.94016-11.90912 11.90912 32.35328 32.35328-30.464 30.45888 30.49472 30.49472-31.06304 31.06304 11.904 11.904 13.72672-13.7216 3.61984 3.61984z" fill="#E8DE31" p-id="4555"></path><path d="M318.1312 765.8496l-160.56832-160.55808 15.53408-15.53408-11.91424-11.91936-13.7216 13.72672-3.61984-3.61984 17.34144-17.34656 19.15392 19.15904-15.53408 15.53408 156.94848 156.93824zM161.08032 454.70208l-18.56-18.56512 3.61984-3.61984 14.94016 14.94528 11.90912-11.91424-16.74752-16.74752 160.5632-160.5632 3.61984 3.61984L163.4816 418.80064l16.74752 16.74752z" fill="#E8DE31" p-id="4556"></path><path d="M546.9696 141.43488l-24.32512-24.33024 24.32512-24.32512 24.33024 24.32512-24.33024 24.33024z m-17.08544-24.33024l17.08544 17.09056 17.09056-17.09056-17.09056-17.08544-17.08544 17.08544z" fill="#E8DE31" p-id="4557"></path><path d="M515.91168 131.08224l-13.9776-13.9776 13.9776-13.97248 13.97248 13.97248-13.97248 13.9776z m-6.73792-13.9776l6.73792 6.73792 6.7328-6.73792-6.7328-6.7328-6.73792 6.7328z" fill="#E8DE31" p-id="4558"></path><path d="M514.62144 109.0816l-24.33536-24.33024 24.33536-24.32512 24.33024 24.32512-24.33024 24.33024z m-17.09568-24.33024l17.09568 17.09056 17.09056-17.09056-17.09056-17.08544-17.09568 17.08544zM483.5584 140.13952l-24.32512-24.33024 24.32512-24.32512 24.32512 24.33024-24.32512 24.32512z m-17.09056-24.33024l17.08544 17.09056 17.08544-17.08544-17.08544-17.09056-17.08544 17.08544z" fill="#E8DE31" p-id="4559"></path><path d="M546.40128 161.57184l-30.4896-30.4896-30.464 30.45376-32.35328-32.35328-11.91424 11.91424 14.94016 14.94016-3.61984 3.61984-18.56-18.56 19.15392-19.15392 32.35328 32.35328 30.464-30.45376 30.4896 30.4896 31.06304-31.06304 19.14368 19.1488-17.33632 17.34144-3.61984-3.61984 13.71648-13.7216-11.904-11.90912z" fill="#E8DE31" p-id="4560"></path><path d="M765.4656 318.5152l-156.93824-156.94336-15.5392 15.52896-19.1488-19.1488 17.34144-17.34656 3.61984 3.61984-13.7216 13.72672 11.90912 11.90912 15.5392-15.52896 160.55808 160.5632zM265.088 317.18912l-3.61984-3.61984 160.56832-160.5632 16.74752 16.74752 11.90912-11.904-14.94016-14.94016 3.61984-3.61984 18.56 18.56-19.1488 19.14368-16.74752-16.74752z" fill="#E8DE31" p-id="4561"></path><path d="M477.71648 925.44l-24.33024-24.33024 24.33536-24.33024 24.32512 24.33024-24.33024 24.33024z m-17.09056-24.33024l17.09056 17.09056 17.09056-17.09056-17.08544-17.09056-17.09568 17.09056z" fill="#E8DE31" p-id="4562"></path><path d="M508.78464 915.08736l-13.97248-13.97248 13.97248-13.97248 13.97248 13.97248-13.97248 13.97248z m-6.73792-13.9776l6.7328 6.7328 6.7328-6.7328-6.7328-6.72768-6.7328 6.72768z" fill="#E8DE31" p-id="4563"></path><path d="M510.07488 957.79328l-24.33024-24.33024 24.33024-24.32512 24.32512 24.32512-24.32512 24.33024z m-17.09056-24.33024l17.09056 17.09056 17.08544-17.09056-17.08544-17.08544-17.09056 17.08544zM541.1328 926.73536l-24.32512-24.33536 24.32512-24.32512 24.32512 24.33536-24.32512 24.32512z m-17.08032-24.33536l17.08544 17.09568 17.08544-17.08544-17.08544-17.09568-17.08544 17.08544z" fill="#E8DE31" p-id="4564"></path><path d="M571.59168 896.27136l-32.35328-32.35328-30.45888 30.464-30.4896-30.49472-31.06304 31.06304-19.1488-19.1488 17.34144-17.34144 3.61984 3.61984-13.7216 13.7216 11.90912 11.90912 31.06304-31.06816 30.4896 30.49984 30.45888-30.464 32.35328 32.35328 11.91424-11.90912-14.93504-14.93504 3.61984-3.62496 18.55488 18.56z" fill="#E8DE31" p-id="4565"></path><path d="M433.50528 877.60896l-3.61984-3.61984 13.72672-13.7216-11.91424-11.90912-15.52896 15.53408-160.56832-160.5632 3.61984-3.61984 156.94848 156.93824 15.52896-15.52896 19.15392 19.1488zM585.31328 878.92992l-18.55488-18.55488 19.1488-19.15392 16.7424 16.75264 156.94848-156.94336 3.61984 3.61984-160.56832 160.5632-16.7424-16.75264-11.90912 11.91424 14.93504 14.93504z" fill="#E8DE31" p-id="4566"></path></svg>