<?xml version="1.0" standalone="no"?><!DOCTYPE svg PUBLIC "-//W3C//DTD SVG 1.1//EN" "http://www.w3.org/Graphics/SVG/1.1/DTD/svg11.dtd"><svg t="1578883214762" class="icon" viewBox="0 0 1024 1024" version="1.1" xmlns="http://www.w3.org/2000/svg" p-id="2929" xmlns:xlink="http://www.w3.org/1999/xlink" width="300" height="300"><defs><style type="text/css"></style></defs><path d="M684.223975 266.151551c-9.246957 34.173537-43.420495 49.451119-64.929721 77.393011-9.246957 61.914409-18.694935 126.84413 21.710247 176.49627 89.856302 18.493914 71.161366-95.886926 130.060463-130.060463 18.493914 24.725559-18.493914 52.667452 6.231645 80.408324l80.408324-55.682764a124.632901 124.632901 0 0 0 15.478602-74.3777 82.820573 82.820573 0 0 0-18.493914-15.478602 122.421673 122.421673 0 0 0-105.334904 34.173538c-27.740872 9.246957-43.219474 49.451119-74.377699 55.682764-12.46329-9.246957-3.015312-27.740872-6.231645-43.219474 37.18885-74.377699 77.393011-164.03298 170.264625-185.743228 12.46329-15.478602 37.18885-37.18885 21.710247-64.929721-30.957205 15.478602-58.899097 3.015312-92.871614 18.493914-24.725559 30.957205-64.929721 27.740872-96.087946 46.435807-27.740872-52.667452 18.694935-105.133883 18.694935-160.816647C678.193351-12.46329 641.004501 0 619.294254 12.46329c18.493914 40.204162 0 83.624656-9.246958 123.828818 3.015312 52.667452-27.740872 89.655281-6.231645 142.322733 30.957205 12.46329 52.667452-21.710247 80.408324-12.46329zM343.694725 167.249313c27.941892-15.478602 24.725559-49.451119 34.173537-77.393011-30.957205-46.435807-86.639969-58.899097-139.30742-71.362388a23.318414 23.318414 0 0 0-15.478603 24.72556c33.972517 43.420495 61.914409 111.365528 120.612486 123.828818zM393.346865 557.229682c-9.246957-71.161366 30.957205-130.060463 37.188849-198.206517l-18.694935-30.957205c-21.710247 0-77.393011-21.710247-74.377699 18.694935a123.627797 123.627797 0 0 1-80.408324 61.914409c-30.957205 68.146054-95.886926 102.118571-145.539065 157.801335a216.29839 216.29839 0 0 0-74.3777 40.204162c-9.246957 24.725559 12.46329 40.204162 9.246958 61.914409 111.566549 46.636828 151.971731-105.736945 238.6117-142.322733 9.246957-12.46329 12.46329-30.957205 27.941892-30.957204 9.246957 9.246957 6.231645 30.957205 3.015312 43.420495-43.420495 40.204162-43.420495 108.350216-40.204162 164.03298-52.667452 52.667452-61.914409 126.84413-102.11857 185.743227a23.921476 23.921476 0 0 0 15.478602-6.231645c18.493914 18.493914 9.246957 49.451119 21.710247 71.161366a37.992933 37.992933 0 0 0 40.204162-6.231645c40.204162 18.493914 24.725559-34.173537 55.682764-40.204162 24.725559 30.957205 9.246957 74.377699 37.18885 102.118571 15.478602 0 40.204162 30.957205 49.652139 3.015312 15.478602-102.118571 18.493914-229.163722-6.231645-328.26698 27.941892-64.929721 43.420495-136.292108 68.146054-204.237142-37.18885 12.46329-37.18885 58.899097-61.914409 77.393011z" fill="#B61D22" p-id="2930"></path><path d="M944.344901 609.897134c-71.161366-12.46329-133.075775 30.957205-182.727915 83.624656-40.204162 21.710247-43.219474 70.357283-83.423635 83.624657 6.231645-61.914409 9.246957-142.523753 71.161366-185.743228 6.231645-61.914409 77.393011-49.451119 114.581861-74.377699 6.231645-21.710247-18.493914-12.46329-24.72556-24.725559-37.18885 0-83.624656-40.204162-105.334903 15.478602-3.015312 55.682764-49.451119 92.871614-58.899097 148.554378-37.18885 64.929721-83.624656 139.30742-58.899097 216.700432 6.231645 27.941892 27.941892 55.682764 58.899097 52.667451 24.725559-12.46329 21.710247-40.204162 21.710247-64.929721 3.015312-24.725559 30.957205-18.493914 49.451119-18.493914 15.478602 18.493914 0 40.204162 0 61.914409l21.710247 6.231645a243.838241 243.838241 0 0 1-27.941892 64.929721l120.612485 18.493915c86.639969-49.451119 64.929721-154.786023 120.612485-222.932077 15.478602-61.914409 9.246957-123.828818-37.188849-160.816647zM733.876115 814.134276c-6.231645 3.015312-9.246957-3.015312-12.463291-6.231645a74.980762 74.980762 0 0 1 43.420495-52.667452 50.657244 50.657244 0 0 1-30.957204 58.899097z m117.597173 90.459364c-18.493914 6.231645-40.204162 18.493914-55.682764 3.015312a80.408324 80.408324 0 0 1 64.929721-58.899097l18.493914 12.46329c6.231645 21.710247-12.46329 37.18885-27.941892 43.420495z m77.393011-182.727916c-6.231645 37.18885-12.262269 89.856302-49.451119 102.118571-46.435807-6.231645-3.015312-55.682764-21.710247-83.624656-3.015312-22.112289-58.899097-31.359246-21.710247-56.888889 24.725559-40.204162 117.597173-27.740872 92.871613 37.18885z" fill="#B61D22" p-id="2931"></path></svg>